<mxfile host="app.diagrams.net" modified="2023-04-10T06:12:14.008Z" agent="Mozilla/5.0 (Windows NT 10.0; Win64; x64) AppleWebKit/537.36 (KHTML, like Gecko) Chrome/111.0.0.0 Safari/537.36" etag="Ja1ELjrmW-JfEMUR9Bcn" version="21.1.4" type="github">
  <diagram name="第 1 页" id="rm_AjaoqxogWTn5zpEYG">
    <mxGraphModel dx="1878" dy="952" grid="1" gridSize="10" guides="1" tooltips="1" connect="1" arrows="1" fold="1" page="1" pageScale="1" pageWidth="827" pageHeight="1169" math="0" shadow="0">
      <root>
        <mxCell id="0" />
        <mxCell id="1" parent="0" />
        <mxCell id="xVqG0_X76cOuItJ1Ll3z-10" value="数据接入&lt;br style=&quot;font-size: 15px;&quot;&gt;与处理" style="ellipse;whiteSpace=wrap;html=1;fontSize=15;" parent="1" vertex="1">
          <mxGeometry x="268" y="310" width="106" height="60" as="geometry" />
        </mxCell>
        <mxCell id="xVqG0_X76cOuItJ1Ll3z-11" value="&amp;lt;&amp;lt;include&amp;gt;&amp;gt;" style="html=1;verticalAlign=bottom;labelBackgroundColor=none;endArrow=open;endFill=0;dashed=1;rounded=0;fontSize=15;exitX=1;exitY=0.5;exitDx=0;exitDy=0;entryX=0;entryY=0.5;entryDx=0;entryDy=0;" parent="1" source="xVqG0_X76cOuItJ1Ll3z-10" target="xVqG0_X76cOuItJ1Ll3z-12" edge="1">
          <mxGeometry x="-0.1918" y="11" width="160" relative="1" as="geometry">
            <mxPoint x="409.5" y="300" as="sourcePoint" />
            <mxPoint x="499.5" y="250" as="targetPoint" />
            <mxPoint as="offset" />
          </mxGeometry>
        </mxCell>
        <mxCell id="xVqG0_X76cOuItJ1Ll3z-12" value="数据接收&lt;br style=&quot;font-size: 15px;&quot;&gt;与解析" style="ellipse;whiteSpace=wrap;html=1;fontSize=15;" parent="1" vertex="1">
          <mxGeometry x="439.5" y="240" width="100" height="50" as="geometry" />
        </mxCell>
        <mxCell id="xVqG0_X76cOuItJ1Ll3z-13" style="edgeStyle=none;rounded=0;orthogonalLoop=1;jettySize=auto;html=1;entryX=0;entryY=0.5;entryDx=0;entryDy=0;fontSize=15;" parent="1" source="xVqG0_X76cOuItJ1Ll3z-12" target="xVqG0_X76cOuItJ1Ll3z-12" edge="1">
          <mxGeometry relative="1" as="geometry" />
        </mxCell>
        <mxCell id="xVqG0_X76cOuItJ1Ll3z-14" value="数据处理" style="ellipse;whiteSpace=wrap;html=1;fontSize=15;" parent="1" vertex="1">
          <mxGeometry x="439.5" y="379" width="100" height="50" as="geometry" />
        </mxCell>
        <mxCell id="xVqG0_X76cOuItJ1Ll3z-15" style="edgeStyle=none;rounded=0;orthogonalLoop=1;jettySize=auto;html=1;entryX=0;entryY=0.5;entryDx=0;entryDy=0;fontSize=15;" parent="1" source="xVqG0_X76cOuItJ1Ll3z-14" target="xVqG0_X76cOuItJ1Ll3z-14" edge="1">
          <mxGeometry relative="1" as="geometry" />
        </mxCell>
        <mxCell id="xVqG0_X76cOuItJ1Ll3z-16" value="&amp;lt;&amp;lt;include&amp;gt;&amp;gt;" style="html=1;verticalAlign=bottom;labelBackgroundColor=none;endArrow=open;endFill=0;dashed=1;rounded=0;fontSize=15;exitX=1;exitY=0.5;exitDx=0;exitDy=0;entryX=0;entryY=0.5;entryDx=0;entryDy=0;" parent="1" source="xVqG0_X76cOuItJ1Ll3z-10" target="xVqG0_X76cOuItJ1Ll3z-14" edge="1">
          <mxGeometry x="0.0356" y="-23" width="160" relative="1" as="geometry">
            <mxPoint x="409.5" y="370" as="sourcePoint" />
            <mxPoint x="529.5" y="315" as="targetPoint" />
            <mxPoint as="offset" />
          </mxGeometry>
        </mxCell>
        <mxCell id="xVqG0_X76cOuItJ1Ll3z-17" value="" style="endArrow=open;endFill=1;endSize=12;html=1;rounded=0;fontSize=15;exitX=1;exitY=0.3333333333333333;exitDx=0;exitDy=0;exitPerimeter=0;entryX=0;entryY=0.5;entryDx=0;entryDy=0;" parent="1" source="xVqG0_X76cOuItJ1Ll3z-39" target="xVqG0_X76cOuItJ1Ll3z-10" edge="1">
          <mxGeometry width="160" relative="1" as="geometry">
            <mxPoint x="190" y="483" as="sourcePoint" />
            <mxPoint x="190" y="233" as="targetPoint" />
          </mxGeometry>
        </mxCell>
        <mxCell id="xVqG0_X76cOuItJ1Ll3z-18" value="数据接收" style="ellipse;whiteSpace=wrap;html=1;fontSize=15;" parent="1" vertex="1">
          <mxGeometry x="620" y="202" width="100" height="50" as="geometry" />
        </mxCell>
        <mxCell id="xVqG0_X76cOuItJ1Ll3z-19" value="&amp;lt;&amp;lt;include&amp;gt;&amp;gt;" style="html=1;verticalAlign=bottom;labelBackgroundColor=none;endArrow=open;endFill=0;dashed=1;rounded=0;fontSize=15;exitX=1;exitY=0.5;exitDx=0;exitDy=0;entryX=0;entryY=0.5;entryDx=0;entryDy=0;" parent="1" source="xVqG0_X76cOuItJ1Ll3z-12" target="xVqG0_X76cOuItJ1Ll3z-18" edge="1">
          <mxGeometry x="0.0356" y="-23" width="160" relative="1" as="geometry">
            <mxPoint x="740" y="370" as="sourcePoint" />
            <mxPoint x="860" y="435" as="targetPoint" />
            <mxPoint as="offset" />
          </mxGeometry>
        </mxCell>
        <mxCell id="xVqG0_X76cOuItJ1Ll3z-20" value="数据解析" style="ellipse;whiteSpace=wrap;html=1;fontSize=15;" parent="1" vertex="1">
          <mxGeometry x="620" y="285" width="100" height="50" as="geometry" />
        </mxCell>
        <mxCell id="xVqG0_X76cOuItJ1Ll3z-21" value="&amp;lt;&amp;lt;include&amp;gt;&amp;gt;" style="html=1;verticalAlign=bottom;labelBackgroundColor=none;endArrow=open;endFill=0;dashed=1;rounded=0;fontSize=15;exitX=1;exitY=0.5;exitDx=0;exitDy=0;entryX=0;entryY=0.5;entryDx=0;entryDy=0;" parent="1" source="xVqG0_X76cOuItJ1Ll3z-12" target="xVqG0_X76cOuItJ1Ll3z-20" edge="1">
          <mxGeometry x="0.0356" y="-23" width="160" relative="1" as="geometry">
            <mxPoint x="750" y="440" as="sourcePoint" />
            <mxPoint x="820" y="400" as="targetPoint" />
            <mxPoint as="offset" />
          </mxGeometry>
        </mxCell>
        <mxCell id="xVqG0_X76cOuItJ1Ll3z-22" value="&amp;lt;&amp;lt;include&amp;gt;&amp;gt;" style="html=1;verticalAlign=bottom;labelBackgroundColor=none;endArrow=open;endFill=0;dashed=1;rounded=0;fontSize=15;exitX=1;exitY=0.5;exitDx=0;exitDy=0;entryX=0;entryY=0.5;entryDx=0;entryDy=0;" parent="1" source="xVqG0_X76cOuItJ1Ll3z-14" target="xVqG0_X76cOuItJ1Ll3z-24" edge="1">
          <mxGeometry x="-0.0805" y="5" width="160" relative="1" as="geometry">
            <mxPoint x="750" y="439" as="sourcePoint" />
            <mxPoint x="820" y="399" as="targetPoint" />
            <mxPoint as="offset" />
          </mxGeometry>
        </mxCell>
        <mxCell id="xVqG0_X76cOuItJ1Ll3z-24" value="数据持久化" style="ellipse;whiteSpace=wrap;html=1;fontSize=15;" parent="1" vertex="1">
          <mxGeometry x="630" y="360" width="100" height="50" as="geometry" />
        </mxCell>
        <mxCell id="xVqG0_X76cOuItJ1Ll3z-25" value="数据实时处理" style="ellipse;whiteSpace=wrap;html=1;fontSize=15;" parent="1" vertex="1">
          <mxGeometry x="620" y="439" width="100" height="50" as="geometry" />
        </mxCell>
        <mxCell id="xVqG0_X76cOuItJ1Ll3z-26" value="&amp;lt;&amp;lt;include&amp;gt;&amp;gt;" style="html=1;verticalAlign=bottom;labelBackgroundColor=none;endArrow=open;endFill=0;dashed=1;rounded=0;fontSize=15;exitX=1;exitY=0.5;exitDx=0;exitDy=0;entryX=0;entryY=0.5;entryDx=0;entryDy=0;" parent="1" source="xVqG0_X76cOuItJ1Ll3z-14" target="xVqG0_X76cOuItJ1Ll3z-25" edge="1">
          <mxGeometry x="0.0356" y="-23" width="160" relative="1" as="geometry">
            <mxPoint x="590" y="589" as="sourcePoint" />
            <mxPoint x="660" y="549" as="targetPoint" />
            <mxPoint as="offset" />
          </mxGeometry>
        </mxCell>
        <mxCell id="xVqG0_X76cOuItJ1Ll3z-28" value="数据服务管理" style="ellipse;whiteSpace=wrap;html=1;fontSize=15;" parent="1" vertex="1">
          <mxGeometry x="980" y="325" width="100" height="60" as="geometry" />
        </mxCell>
        <mxCell id="xVqG0_X76cOuItJ1Ll3z-29" value="&lt;font style=&quot;font-size: 15px;&quot;&gt;用户&lt;/font&gt;" style="shape=umlActor;verticalLabelPosition=bottom;verticalAlign=top;html=1;outlineConnect=0;fontSize=15;" parent="1" vertex="1">
          <mxGeometry x="1150" y="332.5" width="30" height="60" as="geometry" />
        </mxCell>
        <mxCell id="xVqG0_X76cOuItJ1Ll3z-30" value="" style="endArrow=open;endFill=1;endSize=12;html=1;rounded=0;fontSize=15;exitX=0;exitY=0.3333333333333333;exitDx=0;exitDy=0;exitPerimeter=0;entryX=1;entryY=0.5;entryDx=0;entryDy=0;" parent="1" source="xVqG0_X76cOuItJ1Ll3z-29" target="xVqG0_X76cOuItJ1Ll3z-28" edge="1">
          <mxGeometry width="160" relative="1" as="geometry">
            <mxPoint x="1210" y="190" as="sourcePoint" />
            <mxPoint x="1310" y="140" as="targetPoint" />
          </mxGeometry>
        </mxCell>
        <mxCell id="xVqG0_X76cOuItJ1Ll3z-31" value="&amp;lt;&amp;lt;include&amp;gt;&amp;gt;" style="html=1;verticalAlign=bottom;labelBackgroundColor=none;endArrow=open;endFill=0;dashed=1;rounded=0;fontSize=15;exitX=0;exitY=0.5;exitDx=0;exitDy=0;entryX=1;entryY=0.5;entryDx=0;entryDy=0;" parent="1" source="xVqG0_X76cOuItJ1Ll3z-28" target="xVqG0_X76cOuItJ1Ll3z-32" edge="1">
          <mxGeometry x="0.1161" y="5" width="160" relative="1" as="geometry">
            <mxPoint x="200" y="370" as="sourcePoint" />
            <mxPoint x="910" y="210" as="targetPoint" />
            <mxPoint as="offset" />
            <Array as="points" />
          </mxGeometry>
        </mxCell>
        <mxCell id="xVqG0_X76cOuItJ1Ll3z-32" value="用户管理" style="ellipse;whiteSpace=wrap;html=1;fontSize=15;" parent="1" vertex="1">
          <mxGeometry x="765" y="200" width="90" height="45" as="geometry" />
        </mxCell>
        <mxCell id="xVqG0_X76cOuItJ1Ll3z-33" value="设备管理" style="ellipse;whiteSpace=wrap;html=1;fontSize=15;" parent="1" vertex="1">
          <mxGeometry x="759.63" y="265" width="100" height="50" as="geometry" />
        </mxCell>
        <mxCell id="xVqG0_X76cOuItJ1Ll3z-34" value="&amp;lt;&amp;lt;include&amp;gt;&amp;gt;" style="html=1;verticalAlign=bottom;labelBackgroundColor=none;endArrow=open;endFill=0;dashed=1;rounded=0;fontSize=15;exitX=0;exitY=0.5;exitDx=0;exitDy=0;entryX=1;entryY=0.5;entryDx=0;entryDy=0;" parent="1" source="xVqG0_X76cOuItJ1Ll3z-28" target="xVqG0_X76cOuItJ1Ll3z-33" edge="1">
          <mxGeometry x="-0.2042" y="11" width="160" relative="1" as="geometry">
            <mxPoint x="1020" y="520" as="sourcePoint" />
            <mxPoint x="920" y="480" as="targetPoint" />
            <mxPoint as="offset" />
          </mxGeometry>
        </mxCell>
        <mxCell id="xVqG0_X76cOuItJ1Ll3z-35" value="设备监测&lt;br&gt;与报警" style="ellipse;whiteSpace=wrap;html=1;fontSize=15;" parent="1" vertex="1">
          <mxGeometry x="760" y="340" width="100" height="45" as="geometry" />
        </mxCell>
        <mxCell id="xVqG0_X76cOuItJ1Ll3z-36" value="数据查询" style="ellipse;whiteSpace=wrap;html=1;fontSize=15;" parent="1" vertex="1">
          <mxGeometry x="757.13" y="410" width="105" height="55" as="geometry" />
        </mxCell>
        <mxCell id="xVqG0_X76cOuItJ1Ll3z-37" value="&amp;lt;&amp;lt;include&amp;gt;&amp;gt;" style="html=1;verticalAlign=bottom;labelBackgroundColor=none;endArrow=open;endFill=0;dashed=1;rounded=0;fontSize=15;exitX=0;exitY=0.5;exitDx=0;exitDy=0;entryX=1;entryY=0.5;entryDx=0;entryDy=0;" parent="1" source="xVqG0_X76cOuItJ1Ll3z-28" target="xVqG0_X76cOuItJ1Ll3z-35" edge="1">
          <mxGeometry x="0.3333" y="18" width="160" relative="1" as="geometry">
            <mxPoint x="1000" y="260" as="sourcePoint" />
            <mxPoint x="900" y="330" as="targetPoint" />
            <mxPoint as="offset" />
          </mxGeometry>
        </mxCell>
        <mxCell id="xVqG0_X76cOuItJ1Ll3z-38" value="&amp;lt;&amp;lt;include&amp;gt;&amp;gt;" style="html=1;verticalAlign=bottom;labelBackgroundColor=none;endArrow=open;endFill=0;dashed=1;rounded=0;fontSize=15;exitX=0;exitY=0.5;exitDx=0;exitDy=0;entryX=1;entryY=0.5;entryDx=0;entryDy=0;" parent="1" source="xVqG0_X76cOuItJ1Ll3z-28" target="xVqG0_X76cOuItJ1Ll3z-36" edge="1">
          <mxGeometry x="0.3065" y="24" width="160" relative="1" as="geometry">
            <mxPoint x="1040" y="560" as="sourcePoint" />
            <mxPoint x="910" y="630" as="targetPoint" />
            <mxPoint as="offset" />
          </mxGeometry>
        </mxCell>
        <mxCell id="xVqG0_X76cOuItJ1Ll3z-39" value="&lt;font style=&quot;font-size: 15px;&quot;&gt;服务器&lt;/font&gt;" style="shape=umlActor;verticalLabelPosition=bottom;verticalAlign=top;html=1;outlineConnect=0;fontSize=15;" parent="1" vertex="1">
          <mxGeometry x="170" y="510" width="30" height="60" as="geometry" />
        </mxCell>
        <mxCell id="_ve1iSsWlfkx62Zq-V1f-1" value="数据传输&lt;br&gt;协议" style="ellipse;whiteSpace=wrap;html=1;fontSize=15;" vertex="1" parent="1">
          <mxGeometry x="346" y="677" width="106" height="55" as="geometry" />
        </mxCell>
        <mxCell id="_ve1iSsWlfkx62Zq-V1f-2" value="" style="endArrow=open;endFill=1;endSize=12;html=1;rounded=0;fontSize=15;exitX=1;exitY=0.3333333333333333;exitDx=0;exitDy=0;exitPerimeter=0;entryX=0;entryY=0.5;entryDx=0;entryDy=0;" edge="1" parent="1" source="xVqG0_X76cOuItJ1Ll3z-39" target="_ve1iSsWlfkx62Zq-V1f-1">
          <mxGeometry width="160" relative="1" as="geometry">
            <mxPoint x="120" y="410" as="sourcePoint" />
            <mxPoint x="178" y="280" as="targetPoint" />
          </mxGeometry>
        </mxCell>
        <mxCell id="_ve1iSsWlfkx62Zq-V1f-4" value="建立会话" style="ellipse;whiteSpace=wrap;html=1;fontSize=16;" vertex="1" parent="1">
          <mxGeometry x="540.5" y="532" width="97.5" height="50" as="geometry" />
        </mxCell>
        <mxCell id="_ve1iSsWlfkx62Zq-V1f-6" value="接收状态&lt;br&gt;数据" style="ellipse;whiteSpace=wrap;html=1;fontSize=16;direction=west;" vertex="1" parent="1">
          <mxGeometry x="537.5" y="627" width="103" height="50" as="geometry" />
        </mxCell>
        <mxCell id="_ve1iSsWlfkx62Zq-V1f-7" value="心跳检测" style="ellipse;whiteSpace=wrap;html=1;fontSize=16;direction=west;" vertex="1" parent="1">
          <mxGeometry x="538" y="717" width="97" height="50" as="geometry" />
        </mxCell>
        <mxCell id="_ve1iSsWlfkx62Zq-V1f-8" value="断开会话" style="ellipse;whiteSpace=wrap;html=1;fontSize=16;direction=west;" vertex="1" parent="1">
          <mxGeometry x="538" y="812" width="97" height="50" as="geometry" />
        </mxCell>
        <mxCell id="_ve1iSsWlfkx62Zq-V1f-9" value="&amp;lt;&amp;lt;include&amp;gt;&amp;gt;" style="html=1;verticalAlign=bottom;labelBackgroundColor=none;endArrow=open;endFill=0;dashed=1;rounded=0;fontSize=15;exitX=1;exitY=0.5;exitDx=0;exitDy=0;entryX=0;entryY=0.5;entryDx=0;entryDy=0;" edge="1" parent="1" source="_ve1iSsWlfkx62Zq-V1f-1" target="_ve1iSsWlfkx62Zq-V1f-4">
          <mxGeometry x="-0.1183" y="4" width="160" relative="1" as="geometry">
            <mxPoint x="148" y="767" as="sourcePoint" />
            <mxPoint x="214" y="831" as="targetPoint" />
            <mxPoint as="offset" />
          </mxGeometry>
        </mxCell>
        <mxCell id="_ve1iSsWlfkx62Zq-V1f-10" value="&amp;lt;&amp;lt;include&amp;gt;&amp;gt;" style="html=1;verticalAlign=bottom;labelBackgroundColor=none;endArrow=open;endFill=0;dashed=1;rounded=0;fontSize=15;exitX=1;exitY=0.5;exitDx=0;exitDy=0;entryX=1;entryY=0.5;entryDx=0;entryDy=0;" edge="1" parent="1" source="_ve1iSsWlfkx62Zq-V1f-1" target="_ve1iSsWlfkx62Zq-V1f-6">
          <mxGeometry x="-0.1183" y="4" width="160" relative="1" as="geometry">
            <mxPoint x="178" y="767" as="sourcePoint" />
            <mxPoint x="245" y="664" as="targetPoint" />
            <mxPoint as="offset" />
          </mxGeometry>
        </mxCell>
        <mxCell id="_ve1iSsWlfkx62Zq-V1f-11" value="&amp;lt;&amp;lt;include&amp;gt;&amp;gt;" style="html=1;verticalAlign=bottom;labelBackgroundColor=none;endArrow=open;endFill=0;dashed=1;rounded=0;fontSize=15;exitX=1;exitY=0.5;exitDx=0;exitDy=0;entryX=1;entryY=0.5;entryDx=0;entryDy=0;" edge="1" parent="1" source="_ve1iSsWlfkx62Zq-V1f-1" target="_ve1iSsWlfkx62Zq-V1f-7">
          <mxGeometry x="0.0792" y="-3" width="160" relative="1" as="geometry">
            <mxPoint x="198" y="877" as="sourcePoint" />
            <mxPoint x="261" y="844" as="targetPoint" />
            <mxPoint as="offset" />
          </mxGeometry>
        </mxCell>
        <mxCell id="_ve1iSsWlfkx62Zq-V1f-12" value="&amp;lt;&amp;lt;include&amp;gt;&amp;gt;" style="html=1;verticalAlign=bottom;labelBackgroundColor=none;endArrow=open;endFill=0;dashed=1;rounded=0;fontSize=15;exitX=1;exitY=0.5;exitDx=0;exitDy=0;entryX=1;entryY=0.5;entryDx=0;entryDy=0;" edge="1" parent="1" source="_ve1iSsWlfkx62Zq-V1f-1" target="_ve1iSsWlfkx62Zq-V1f-8">
          <mxGeometry x="0.1525" y="-17" width="160" relative="1" as="geometry">
            <mxPoint x="368" y="817" as="sourcePoint" />
            <mxPoint x="451" y="779" as="targetPoint" />
            <mxPoint as="offset" />
          </mxGeometry>
        </mxCell>
        <mxCell id="_ve1iSsWlfkx62Zq-V1f-13" value="&lt;font style=&quot;font-size: 15px;&quot;&gt;物联网设备&lt;/font&gt;" style="shape=umlActor;verticalLabelPosition=bottom;verticalAlign=top;html=1;outlineConnect=0;fontSize=15;" vertex="1" parent="1">
          <mxGeometry x="1150" y="705" width="30" height="60" as="geometry" />
        </mxCell>
        <mxCell id="_ve1iSsWlfkx62Zq-V1f-14" value="数据采集&lt;br style=&quot;font-size: 15px;&quot;&gt;与上传" style="ellipse;whiteSpace=wrap;html=1;fontSize=15;" vertex="1" parent="1">
          <mxGeometry x="920.5" y="800" width="104" height="60" as="geometry" />
        </mxCell>
        <mxCell id="_ve1iSsWlfkx62Zq-V1f-15" value="" style="endArrow=open;endFill=1;endSize=12;html=1;rounded=0;fontSize=15;exitX=0;exitY=0.3333333333333333;exitDx=0;exitDy=0;exitPerimeter=0;entryX=1;entryY=0.5;entryDx=0;entryDy=0;" edge="1" parent="1" source="_ve1iSsWlfkx62Zq-V1f-13" target="_ve1iSsWlfkx62Zq-V1f-14">
          <mxGeometry width="160" relative="1" as="geometry">
            <mxPoint x="452.5" y="995" as="sourcePoint" />
            <mxPoint x="1043" y="790" as="targetPoint" />
          </mxGeometry>
        </mxCell>
        <mxCell id="_ve1iSsWlfkx62Zq-V1f-16" value="&amp;lt;&amp;lt;include&amp;gt;&amp;gt;" style="html=1;verticalAlign=bottom;labelBackgroundColor=none;endArrow=open;endFill=0;dashed=1;rounded=0;fontSize=15;entryX=1;entryY=0.5;entryDx=0;entryDy=0;exitX=0;exitY=0.5;exitDx=0;exitDy=0;" edge="1" parent="1" target="_ve1iSsWlfkx62Zq-V1f-17">
          <mxGeometry x="-0.1918" y="11" width="160" relative="1" as="geometry">
            <mxPoint x="920.5000000000146" y="831" as="sourcePoint" />
            <mxPoint x="764.5" y="796" as="targetPoint" />
            <mxPoint as="offset" />
          </mxGeometry>
        </mxCell>
        <mxCell id="_ve1iSsWlfkx62Zq-V1f-17" value="数据采集" style="ellipse;whiteSpace=wrap;html=1;fontSize=15;" vertex="1" parent="1">
          <mxGeometry x="744.5" y="761" width="100" height="50" as="geometry" />
        </mxCell>
        <mxCell id="_ve1iSsWlfkx62Zq-V1f-18" style="edgeStyle=none;rounded=0;orthogonalLoop=1;jettySize=auto;html=1;entryX=0;entryY=0.5;entryDx=0;entryDy=0;fontSize=15;" edge="1" parent="1" source="_ve1iSsWlfkx62Zq-V1f-17" target="_ve1iSsWlfkx62Zq-V1f-17">
          <mxGeometry relative="1" as="geometry" />
        </mxCell>
        <mxCell id="_ve1iSsWlfkx62Zq-V1f-19" value="数据上传" style="ellipse;whiteSpace=wrap;html=1;fontSize=15;" vertex="1" parent="1">
          <mxGeometry x="744.5" y="850" width="100" height="50" as="geometry" />
        </mxCell>
        <mxCell id="_ve1iSsWlfkx62Zq-V1f-20" style="edgeStyle=none;rounded=0;orthogonalLoop=1;jettySize=auto;html=1;entryX=0;entryY=0.5;entryDx=0;entryDy=0;fontSize=15;" edge="1" parent="1" source="_ve1iSsWlfkx62Zq-V1f-19" target="_ve1iSsWlfkx62Zq-V1f-19">
          <mxGeometry relative="1" as="geometry" />
        </mxCell>
        <mxCell id="_ve1iSsWlfkx62Zq-V1f-21" value="&amp;lt;&amp;lt;include&amp;gt;&amp;gt;" style="html=1;verticalAlign=bottom;labelBackgroundColor=none;endArrow=open;endFill=0;dashed=1;rounded=0;fontSize=15;entryX=1;entryY=0.5;entryDx=0;entryDy=0;exitX=0;exitY=0.5;exitDx=0;exitDy=0;" edge="1" parent="1" target="_ve1iSsWlfkx62Zq-V1f-19">
          <mxGeometry x="0.1901" y="-4" width="160" relative="1" as="geometry">
            <mxPoint x="920.5000000000146" y="831" as="sourcePoint" />
            <mxPoint x="794.5" y="861" as="targetPoint" />
            <mxPoint as="offset" />
          </mxGeometry>
        </mxCell>
        <mxCell id="_ve1iSsWlfkx62Zq-V1f-26" value="数据传输&lt;br&gt;协议" style="ellipse;whiteSpace=wrap;html=1;fontSize=15;" vertex="1" parent="1">
          <mxGeometry x="940" y="570" width="106" height="55" as="geometry" />
        </mxCell>
        <mxCell id="_ve1iSsWlfkx62Zq-V1f-28" value="建立会话" style="ellipse;whiteSpace=wrap;html=1;fontSize=16;" vertex="1" parent="1">
          <mxGeometry x="742" y="490" width="107" height="50" as="geometry" />
        </mxCell>
        <mxCell id="_ve1iSsWlfkx62Zq-V1f-29" value="发送状态&lt;br&gt;数据" style="ellipse;whiteSpace=wrap;html=1;fontSize=16;" vertex="1" parent="1">
          <mxGeometry x="741.63" y="560" width="105.75" height="55" as="geometry" />
        </mxCell>
        <mxCell id="_ve1iSsWlfkx62Zq-V1f-30" value="心跳检测" style="ellipse;whiteSpace=wrap;html=1;fontSize=16;" vertex="1" parent="1">
          <mxGeometry x="742" y="630" width="97" height="50" as="geometry" />
        </mxCell>
        <mxCell id="_ve1iSsWlfkx62Zq-V1f-31" value="断开会话" style="ellipse;whiteSpace=wrap;html=1;fontSize=16;" vertex="1" parent="1">
          <mxGeometry x="746.01" y="700" width="97" height="50" as="geometry" />
        </mxCell>
        <mxCell id="_ve1iSsWlfkx62Zq-V1f-32" value="" style="endArrow=open;endFill=1;endSize=12;html=1;rounded=0;fontSize=15;exitX=0;exitY=0.3333333333333333;exitDx=0;exitDy=0;exitPerimeter=0;entryX=1;entryY=0.5;entryDx=0;entryDy=0;" edge="1" parent="1" source="_ve1iSsWlfkx62Zq-V1f-13" target="_ve1iSsWlfkx62Zq-V1f-26">
          <mxGeometry width="160" relative="1" as="geometry">
            <mxPoint x="1090" y="530" as="sourcePoint" />
            <mxPoint x="964" y="635" as="targetPoint" />
          </mxGeometry>
        </mxCell>
        <mxCell id="_ve1iSsWlfkx62Zq-V1f-33" value="&amp;lt;&amp;lt;include&amp;gt;&amp;gt;" style="html=1;verticalAlign=bottom;labelBackgroundColor=none;endArrow=open;endFill=0;dashed=1;rounded=0;fontSize=15;exitX=0;exitY=0.5;exitDx=0;exitDy=0;entryX=1;entryY=0.5;entryDx=0;entryDy=0;" edge="1" parent="1" source="_ve1iSsWlfkx62Zq-V1f-26" target="_ve1iSsWlfkx62Zq-V1f-28">
          <mxGeometry x="-0.117" y="-13" width="160" relative="1" as="geometry">
            <mxPoint x="1070" y="520" as="sourcePoint" />
            <mxPoint x="952" y="603" as="targetPoint" />
            <mxPoint as="offset" />
          </mxGeometry>
        </mxCell>
        <mxCell id="_ve1iSsWlfkx62Zq-V1f-34" value="&amp;lt;&amp;lt;include&amp;gt;&amp;gt;" style="html=1;verticalAlign=bottom;labelBackgroundColor=none;endArrow=open;endFill=0;dashed=1;rounded=0;fontSize=15;exitX=0;exitY=0.5;exitDx=0;exitDy=0;entryX=1;entryY=0.5;entryDx=0;entryDy=0;" edge="1" parent="1" source="_ve1iSsWlfkx62Zq-V1f-26" target="_ve1iSsWlfkx62Zq-V1f-29">
          <mxGeometry x="0.0384" y="18" width="160" relative="1" as="geometry">
            <mxPoint x="1100" y="510" as="sourcePoint" />
            <mxPoint x="1009" y="427" as="targetPoint" />
            <mxPoint as="offset" />
          </mxGeometry>
        </mxCell>
        <mxCell id="_ve1iSsWlfkx62Zq-V1f-35" value="&amp;lt;&amp;lt;include&amp;gt;&amp;gt;" style="html=1;verticalAlign=bottom;labelBackgroundColor=none;endArrow=open;endFill=0;dashed=1;rounded=0;fontSize=15;exitX=0;exitY=0.5;exitDx=0;exitDy=0;entryX=1;entryY=0.5;entryDx=0;entryDy=0;" edge="1" parent="1" source="_ve1iSsWlfkx62Zq-V1f-26" target="_ve1iSsWlfkx62Zq-V1f-30">
          <mxGeometry x="0.0384" y="18" width="160" relative="1" as="geometry">
            <mxPoint x="1200" y="540" as="sourcePoint" />
            <mxPoint x="1107" y="530" as="targetPoint" />
            <mxPoint as="offset" />
          </mxGeometry>
        </mxCell>
        <mxCell id="_ve1iSsWlfkx62Zq-V1f-36" value="&amp;lt;&amp;lt;include&amp;gt;&amp;gt;" style="html=1;verticalAlign=bottom;labelBackgroundColor=none;endArrow=open;endFill=0;dashed=1;rounded=0;fontSize=15;exitX=0;exitY=0.5;exitDx=0;exitDy=0;entryX=1;entryY=0.5;entryDx=0;entryDy=0;" edge="1" parent="1" source="_ve1iSsWlfkx62Zq-V1f-26" target="_ve1iSsWlfkx62Zq-V1f-31">
          <mxGeometry x="0.0384" y="18" width="160" relative="1" as="geometry">
            <mxPoint x="980" y="660" as="sourcePoint" />
            <mxPoint x="879" y="717" as="targetPoint" />
            <mxPoint as="offset" />
          </mxGeometry>
        </mxCell>
      </root>
    </mxGraphModel>
  </diagram>
</mxfile>
